<svg xmlns="http://www.w3.org/2000/svg" viewBox="0 0 58.8 58.8"><defs><style>.a{fill:#34a853;}</style></defs><title>icon green</title><path class="a" d="M34.1,42.8H11.3a3.4,3.4,0,0,1-3.4-3.4V19.5a3.4,3.4,0,0,1,3.4-3.4H34.1a3.4,3.4,0,0,1,3.4,3.4V39.4A3.4,3.4,0,0,1,34.1,42.8ZM11.3,19.1a.4.4,0,0,0-.4.4V39.4a.4.4,0,0,0,.4.4H34.1a.4.4,0,0,0,.4-.4V19.5a.4.4,0,0,0-.4-.4Z"/><path class="a" d="M49.2,31a1.5,1.5,0,0,1-1.5-1.5V22.9L36.5,27.3a1.5,1.5,0,0,1-1.9-.8,1.6,1.6,0,0,1,.8-2l13.3-5.2a1.4,1.4,0,0,1,1.4.2,1.3,1.3,0,0,1,.6,1.2v8.8A1.5,1.5,0,0,1,49.2,31Z"/><path class="a" d="M49.2,39.7h-.5L35.4,34.4a1.5,1.5,0,0,1-.8-1.9,1.5,1.5,0,0,1,1.9-.9L47.7,36V29.5A1.5,1.5,0,0,1,49.2,28a1.4,1.4,0,0,1,1.5,1.5v8.7a1.6,1.6,0,0,1-.6,1.3Z"/><path class="a" d="M19,36.6l-.8-.2a1.7,1.7,0,0,1-.7-1.3V23.8a1.7,1.7,0,0,1,.7-1.3,1.9,1.9,0,0,1,1.5,0l9.8,5.7a1.3,1.3,0,0,1,.7,1.3,1.5,1.5,0,0,1-.7,1.3l-9.8,5.6Zm1.5-10.2v6.1l5.2-3Z"/></svg>