<svg xmlns="http://www.w3.org/2000/svg" viewBox="0 0 58.8 58.8"><defs><style>.a{fill:#808080;}</style></defs><title>icon gray</title><circle class="a" cx="29.3" cy="42.8" r="3.9"/><path class="a" d="M29.3,47.2a4.4,4.4,0,1,1,4.4-4.4A4.4,4.4,0,0,1,29.3,47.2Zm0-7.8a3.4,3.4,0,0,0-3.4,3.4,3.4,3.4,0,0,0,6.8,0A3.4,3.4,0,0,0,29.3,39.4Z"/><path class="a" d="M29.3,53.1a10.4,10.4,0,0,1-5.4-19.2,1.4,1.4,0,0,1,1.8.4,1.4,1.4,0,0,1-.5,1.8,7.8,7.8,0,0,0,4.1,14.5,7.9,7.9,0,0,0,7.9-7.8,7.6,7.6,0,0,0-3.8-6.7,1.3,1.3,0,0,1-.4-1.8,1.4,1.4,0,0,1,1.7-.4,10.3,10.3,0,0,1-5.4,19.2Z"/><path class="a" d="M34,36.3A1.2,1.2,0,0,1,32.8,35V14.4a4.6,4.6,0,0,0-1-2.9,3.3,3.3,0,0,0-2.5-.9,3.3,3.3,0,0,0-2.5.9,4.2,4.2,0,0,0-.9,2.8c-.2,7.2-.3,18.7-.1,20.3a1.3,1.3,0,0,1-.5,1.5,1.5,1.5,0,0,1-1.3,0c-.9-.5-1-.6-.6-21.7A6.7,6.7,0,0,1,25,9.7a5.7,5.7,0,0,1,4.3-1.6,5.6,5.6,0,0,1,4.3,1.6,7.1,7.1,0,0,1,1.7,4.8V35A1.3,1.3,0,0,1,34,36.3Z"/><path class="a" d="M29.3,40.1a1.2,1.2,0,0,1-1.2-1.2V20.5a1.2,1.2,0,0,1,1.2-1.2,1.3,1.3,0,0,1,1.3,1.2V38.9A1.2,1.2,0,0,1,29.3,40.1Z"/></svg>
