<svg xmlns="http://www.w3.org/2000/svg" viewBox="0 0 58.8 58.8"><defs><style>.a{fill:#ff2700;}</style></defs><title>icon red</title><circle class="a" cx="10.7" cy="30.2" r="2.3"/><path class="a" d="M10.7,33.5a3.3,3.3,0,0,1-3.3-3.3A3.2,3.2,0,0,1,10.7,27,3.2,3.2,0,0,1,14,30.2,3.3,3.3,0,0,1,10.7,33.5Zm0-4.5a1.2,1.2,0,0,0-1.3,1.2,1.3,1.3,0,0,0,2.6,0A1.2,1.2,0,0,0,10.7,29Z"/><circle class="a" cx="29.4" cy="30.2" r="2.3"/><path class="a" d="M29.4,33.5a3.3,3.3,0,0,1-3.3-3.3,3.3,3.3,0,0,1,6.6,0A3.3,3.3,0,0,1,29.4,33.5Zm0-4.5a1.2,1.2,0,0,0-1.3,1.2,1.3,1.3,0,0,0,2.6,0A1.2,1.2,0,0,0,29.4,29Z"/><circle class="a" cx="20.1" cy="22.2" r="2.3"/><path class="a" d="M20.1,25.5a3.3,3.3,0,1,1,0-6.5,3.3,3.3,0,0,1,0,6.5Zm0-4.5a1.2,1.2,0,0,0-1.3,1.2,1.3,1.3,0,0,0,1.3,1.3,1.2,1.2,0,0,0,1.2-1.3A1.2,1.2,0,0,0,20.1,21Z"/><circle class="a" cx="38.8" cy="22.2" r="2.3"/><path class="a" d="M38.8,25.5a3.3,3.3,0,1,1,0-6.5,3.3,3.3,0,0,1,0,6.5Zm0-4.5a1.2,1.2,0,0,0-1.3,1.2,1.3,1.3,0,0,0,1.3,1.3A1.2,1.2,0,0,0,40,22.2,1.2,1.2,0,0,0,38.8,21Z"/><circle class="a" cx="48.1" cy="30.2" r="2.3"/><path class="a" d="M48.1,33.5a3.3,3.3,0,0,1-3.3-3.3,3.3,3.3,0,0,1,6.6,0A3.3,3.3,0,0,1,48.1,33.5Zm0-4.5a1.2,1.2,0,0,0-1.3,1.2,1.3,1.3,0,1,0,2.6,0A1.2,1.2,0,0,0,48.1,29Z"/><circle class="a" cx="20.1" cy="38.2" r="2.3"/><path class="a" d="M20.1,41.5a3.3,3.3,0,0,1-3.3-3.3A3.2,3.2,0,0,1,20.1,35a3.2,3.2,0,0,1,3.2,3.2A3.2,3.2,0,0,1,20.1,41.5Zm0-4.5a1.2,1.2,0,0,0-1.3,1.2,1.3,1.3,0,0,0,1.3,1.3,1.2,1.2,0,0,0,1.2-1.3A1.2,1.2,0,0,0,20.1,37Z"/><circle class="a" cx="38.8" cy="38.2" r="2.3"/><path class="a" d="M38.8,41.5a3.3,3.3,0,0,1-3.3-3.3,3.3,3.3,0,0,1,6.5,0A3.2,3.2,0,0,1,38.8,41.5Zm0-4.5a1.2,1.2,0,0,0-1.3,1.2,1.3,1.3,0,0,0,1.3,1.3A1.2,1.2,0,0,0,40,38.2,1.2,1.2,0,0,0,38.8,37Z"/></svg>