<svg id="圖層_2" data-name="圖層 2" xmlns="http://www.w3.org/2000/svg" viewBox="0 0 58.8 58.8">
  <defs>
    <style>
      .cls-1 {
        fill: #34a853;
      }
    </style>
  </defs>
  <title>icon new</title>
  <g>
    <path class="cls-1" d="M37.23,19a1,1,0,0,1-1-1v-2.5a1,1,0,0,1,1.93,0v2.5A1,1,0,0,1,37.23,19Z" />
    <path class="cls-1" d="M30.77,21.71a1,1,0,0,1-.71-.32l-1.73-1.73a1,1,0,0,1,1.35-1.34l1.73,1.73a1,1,0,0,1,0,1.34A.9.9,0,0,1,30.77,21.71Z" />
    <path class="cls-1" d="M28.08,28.18h-2.5a1,1,0,0,1,0-1.92h2.5a1,1,0,0,1,0,1.92Z" />
    <path class="cls-1" d="M48.89,28.18H46.46a1,1,0,0,1,0-1.92h2.43a1,1,0,1,1,0,1.92Z" />
    <path class="cls-1" d="M43.77,21.71a1,1,0,0,1-.71-.32,1,1,0,0,1,0-1.34l1.73-1.73a1,1,0,0,1,1.35,1.34l-1.73,1.73A1,1,0,0,1,43.77,21.71Z" />
    <path class="cls-1" d="M37.23,29.21a2,2,0,1,1,2-2h0A2,2,0,0,1,37.23,29.21Zm0-2.05v.13h.07a.08.08,0,0,0,0-.1.07.07,0,0,0-.1,0Z" />
    <path class="cls-1" d="M37.23,28.18a.78.78,0,0,1-.64-.25.91.91,0,0,1-.08-1.27l.08-.08,3.08-3.14A1,1,0,0,1,41,24.79l-3.07,3.14A1,1,0,0,1,37.23,28.18Z" />
    <path class="cls-1" d="M50.11,34.65l-.45-.13a.89.89,0,0,1-.43-1.19.41.41,0,0,1,.05-.09,13.93,13.93,0,0,0,1.41-6,13.46,13.46,0,0,0-26.91,0,13.93,13.93,0,0,0,1.41,6,1,1,0,0,1-1.66.9,15.37,15.37,0,1,1,29.08-6.92A16.24,16.24,0,0,1,51,34.14,1,1,0,0,1,50.11,34.65Z" />
    <path class="cls-1" d="M50.11,34.65H24.36a1,1,0,0,1,0-1.92H50.11a1,1,0,0,1,0,1.92Z" />
  </g>
  <path class="cls-1" d="M24.32,47H5.42a1.5,1.5,0,0,1,0-3H21l-5.4-5.9a1.5,1.5,0,1,1,2.2-2l7.6,8.4a1.61,1.61,0,0,1,.3,1.6A1.4,1.4,0,0,1,24.32,47Z" />
</svg>
