<svg xmlns="http://www.w3.org/2000/svg" viewBox="0 0 58.8 58.8">
  <defs>
    <style>
      .cls-1 {
        fill: none;
        stroke: #3aa657;
        stroke-linecap: round;
        stroke-linejoin: round;
        stroke-width: 2px;
      }

      .cls-2 {
        fill: #3aa657;
      }
    </style>
  </defs>
  <title>icon green-16</title>
  <g id="圖層_1" data-name="圖層 1">
    <line class="cls-1" x1="18.67" y1="22.97" x2="44.19" y2="22.97"/>
    <path class="cls-1" d="M8.41,35.43H54.28a0,0,0,0,1,0,0V46.35A2.31,2.31,0,0,1,52,48.66H10.71a2.31,2.31,0,0,1-2.31-2.31V35.43A0,0,0,0,1,8.41,35.43Z"/>
    <polyline class="cls-1" points="8.41 35.43 13.64 18.76 49.05 18.76 54.28 35.43"/>
    <circle class="cls-2" cx="33.09" cy="42.1" r="1.66"/>
    <circle class="cls-2" cx="47.26" cy="42.1" r="1.66"/>
    <circle class="cls-2" cx="40.18" cy="42.1" r="1.66"/>
    <rect class="cls-2" x="13.61" y="39.94" width="4.46" height="4.46" rx="1.02"/>
  </g>
</svg>
