<svg xmlns="http://www.w3.org/2000/svg" viewBox="0 0 58.8 58.8"><defs><style>.a{fill:#808080;}</style></defs><title>icon gray</title><path class="a" d="M29.4,14.8a1.5,1.5,0,0,1-1.5-1.5V8.7a1.5,1.5,0,0,1,3,0v4.6A1.5,1.5,0,0,1,29.4,14.8Z"/><path class="a" d="M29.4,53.5A1.5,1.5,0,0,1,27.9,52V47.4a1.5,1.5,0,0,1,3,0V52A1.5,1.5,0,0,1,29.4,53.5Z"/><path class="a" d="M17.3,19.8a1.6,1.6,0,0,1-1-.5l-3.2-3.2A1.5,1.5,0,1,1,15.2,14l3.2,3.2a1.4,1.4,0,0,1,0,2.1A1.6,1.6,0,0,1,17.3,19.8Z"/><path class="a" d="M44.7,47.1a1.5,1.5,0,0,1-1.1-.4l-3.2-3.2a1.5,1.5,0,0,1,2.1-2.1l3.3,3.2a1.7,1.7,0,0,1,0,2.1A1.5,1.5,0,0,1,44.7,47.1Z"/><path class="a" d="M12.3,31.8H7.8a1.5,1.5,0,0,1-1.5-1.5,1.5,1.5,0,0,1,1.5-1.5h4.5a1.5,1.5,0,0,1,1.5,1.5A1.4,1.4,0,0,1,12.3,31.8Z"/><path class="a" d="M51,31.8H46.5A1.4,1.4,0,0,1,45,30.3a1.5,1.5,0,0,1,1.5-1.5H51a1.5,1.5,0,0,1,1.5,1.5A1.4,1.4,0,0,1,51,31.8Z"/><path class="a" d="M14.1,47.1a1.3,1.3,0,0,1-1-.4,1.4,1.4,0,0,1,0-2.1l3.2-3.2a1.5,1.5,0,0,1,2.1,2.1l-3.2,3.2A1.5,1.5,0,0,1,14.1,47.1Z"/><path class="a" d="M41.5,19.8a1.6,1.6,0,0,1-1.1-.5,1.4,1.4,0,0,1,0-2.1L43.6,14a1.6,1.6,0,0,1,2.2,0,1.7,1.7,0,0,1,0,2.1l-3.3,3.2A1.4,1.4,0,0,1,41.5,19.8Z"/><path class="a" d="M29.4,42A11.7,11.7,0,1,1,41,30.3,11.6,11.6,0,0,1,29.4,42Zm0-20.3A8.7,8.7,0,1,0,38,30.3,8.7,8.7,0,0,0,29.4,21.7Z"/></svg>
