<svg xmlns="http://www.w3.org/2000/svg" viewBox="0 0 58.8 58.8"><defs><style>.a{fill:#808080;}</style></defs><title>icon gray</title><path class="a" d="M9.3,29.3C9.3,21.6,14,17,20,17a9.2,9.2,0,0,1,6.7,3l-2.1,2.3A6.4,6.4,0,0,0,20,20.2c-4.1,0-6.9,3.4-6.9,9s2.6,9.1,6.8,9.1a7.2,7.2,0,0,0,5.3-2.5l2,2.3a9.5,9.5,0,0,1-7.4,3.4C13.8,41.5,9.3,37.1,9.3,29.3Z"/><path class="a" d="M28.9,29.2c0-7.7,4.2-12.2,10.3-12.2s10.3,4.5,10.3,12.2S45.3,41.5,39.2,41.5,28.9,36.8,28.9,29.2Zm16.8,0c0-5.6-2.6-9-6.5-9s-6.4,3.4-6.4,9,2.5,9.1,6.4,9.1S45.7,34.7,45.7,29.2Z"/></svg>
