<svg xmlns="http://www.w3.org/2000/svg" viewBox="0 0 58.8 58.8"><defs><style>.a{fill:#808080;}</style></defs><title>icon gray</title><path class="a" d="M18.7,47.6a9.1,9.1,0,0,1-9.1-9.1,8.8,8.8,0,0,1,1.5-4.9h0l2.6,1.4v.2a5.8,5.8,0,0,0-1.1,3.4,6.2,6.2,0,0,0,6.1,6.1Z"/><polygon class="a" points="23.7 35 18.7 26.5 13.7 35 11.1 33.4 18.7 20.5 26.3 33.4 23.7 35"/><path class="a" d="M18.7,47.6v-3a6.1,6.1,0,0,0,6.1-6.1,7.2,7.2,0,0,0-1-3.4v-.2l2.6-1.4h.1a9.8,9.8,0,0,1,1.4,4.9A9.1,9.1,0,0,1,18.7,47.6Z"/><path class="a" d="M39.7,52.8a9.4,9.4,0,0,1-9.4-9.3,9.2,9.2,0,0,1,1.5-5h0l2.7,1.4h-.1a7.3,7.3,0,0,0-1.1,3.6,6.4,6.4,0,0,0,6.4,6.3Z"/><polygon class="a" points="44.9 39.8 39.7 31 34.4 39.8 31.9 38.3 39.7 25.1 47.4 38.3 44.9 39.8"/><path class="a" d="M39.7,52.8v-3A6.3,6.3,0,0,0,46,43.5a7.3,7.3,0,0,0-1.1-3.6h-.1l2.7-1.4h0a9.5,9.5,0,0,1,1.5,5A9.3,9.3,0,0,1,39.7,52.8Z"/><path class="a" d="M31.7,26.9A6.7,6.7,0,0,1,25,20.2a7.4,7.4,0,0,1,1-3.6L28.7,18h-.1a4.4,4.4,0,0,0-.6,2.1,3.7,3.7,0,0,0,3.7,3.7Z"/><polygon class="a" points="34.7 18 31.7 12.9 28.7 18 26.1 16.5 31.7 7 37.3 16.5 34.7 18"/><path class="a" d="M31.7,26.9v-3a3.8,3.8,0,0,0,3.7-3.7,3.4,3.4,0,0,0-.7-2.1h0l2.6-1.5a8.1,8.1,0,0,1,1.1,3.7A6.7,6.7,0,0,1,31.7,26.9Z"/></svg>
