<svg xmlns="http://www.w3.org/2000/svg" viewBox="0 0 58.8 57.8">
  <defs>
    <style>.a{fill:#ff2700;}</style>
  </defs>
  <title>icon red</title>
  <path class="a" d="M33.1,50.7H25.6a1.5,1.5,0,0,1-1.5-1.5,1.5,1.5,0,0,1,1.5-1.5h7.5a1.5,1.5,0,0,1,1.5,1.5A1.4,1.4,0,0,1,33.1,50.7Z" />
  <path class="a" d="M46.3,26.6H43.2a1.5,1.5,0,0,1-1.5-1.5,1.5,1.5,0,0,1,1.5-1.5h3.1a1.5,1.5,0,0,1,1.5,1.5A1.5,1.5,0,0,1,46.3,26.6Z" />
  <path class="a" d="M15.4,26.6H12.3a1.5,1.5,0,0,1-1.5-1.5,1.5,1.5,0,0,1,1.5-1.5h3.1a1.4,1.4,0,0,1,1.5,1.5A1.5,1.5,0,0,1,15.4,26.6Z" />
  <path class="a" d="M39.1,16.7a1.4,1.4,0,0,1-1-.4,1.5,1.5,0,0,1,0-2.1L40.3,12a1.5,1.5,0,0,1,2.1,2.1l-2.2,2.2A1.5,1.5,0,0,1,39.1,16.7Z" />
  <path class="a" d="M29.4,13.2a1.5,1.5,0,0,1-1.5-1.5V8.3a1.5,1.5,0,1,1,3,0v3.4A1.5,1.5,0,0,1,29.4,13.2Z" />
  <path class="a" d="M19.5,16.7a1.5,1.5,0,0,1-1.1-.4l-2.2-2.2a1.7,1.7,0,0,1,0-2.1,1.6,1.6,0,0,1,2.2,0l2.2,2.2a1.7,1.7,0,0,1,0,2.1A1.5,1.5,0,0,1,19.5,16.7Z" />
  <path class="a" d="M33.1,46.2H25.6a1.5,1.5,0,0,1-1.5-1.5c0-4.8-2.8-9.5-4-11.3-.2-.2-.4-.5-.5-.5h0a12,12,0,0,1-1.9-6.4,11.7,11.7,0,0,1,23.4,0,12,12,0,0,1-1.9,6.4c-.1,0-.1.1-.2.2s-.2.3-.4.5c-1.2,1.8-4,6.4-4,11.2A1.5,1.5,0,0,1,33.1,46.2Zm-6.1-3h4.7a25.8,25.8,0,0,1,4.5-11.4l.5-.7a8.7,8.7,0,1,0-14.6,0l.5.7A26.6,26.6,0,0,1,27,43.2Z" />
</svg>
