<svg xmlns="http://www.w3.org/2000/svg" viewBox="0 0 58.8 58.8"><defs><style>.a{fill:#808080;}</style></defs><title>icon gray</title><path class="a" d="M24.7,50.6h-.5a1.5,1.5,0,0,1-1-1.6l2-16.8h-7a1.6,1.6,0,0,1-1.3-.8,1.6,1.6,0,0,1,.1-1.5L32.4,7.9a1.5,1.5,0,0,1,1.7-.6,1.5,1.5,0,0,1,1,1.6l-2,14h7.5a1.6,1.6,0,0,1,1.3.8,1.4,1.4,0,0,1-.1,1.5L25.9,49.9A1.4,1.4,0,0,1,24.7,50.6ZM21.1,29.1h5.8a1.6,1.6,0,0,1,1.1.5,1.4,1.4,0,0,1,.4,1.2L27,42.8,37.8,25.9H31.4a1.7,1.7,0,0,1-1.2-.5,1.4,1.4,0,0,1-.3-1.2l1.3-9.5Z"/></svg>
