<svg xmlns="http://www.w3.org/2000/svg" viewBox="0 0 58.8 58.8"><defs><style>.a{fill:#ff2700;}</style></defs><title>icon red</title><path class="a" d="M29.4,22.8a1.5,1.5,0,0,1-1.5-1.5V17.4a1.5,1.5,0,0,1,3,0v3.9A1.5,1.5,0,0,1,29.4,22.8Z"/><path class="a" d="M19.3,27a1.6,1.6,0,0,1-1.1-.5l-2.7-2.7a1.5,1.5,0,0,1,2.1-2.1l2.7,2.7a1.5,1.5,0,0,1,0,2.1A1.4,1.4,0,0,1,19.3,27Z"/><path class="a" d="M15.1,37.1H11.2a1.5,1.5,0,1,1,0-3h3.9a1.5,1.5,0,1,1,0,3Z"/><path class="a" d="M47.6,37.1H43.8a1.5,1.5,0,0,1,0-3h3.8a1.5,1.5,0,0,1,0,3Z"/><path class="a" d="M39.6,27a1.6,1.6,0,0,1-1.1-.5,1.5,1.5,0,0,1,0-2.1l2.7-2.7a1.5,1.5,0,0,1,2.1,2.1l-2.7,2.7A1.6,1.6,0,0,1,39.6,27Z"/><path class="a" d="M29.4,38.7a3.1,3.1,0,1,1,3.1-3.1A3.1,3.1,0,0,1,29.4,38.7Zm0-3.2v.2h.1A.1.1,0,0,0,29.4,35.5Z"/><path class="a" d="M29.4,37.1a1.2,1.2,0,0,1-1-.4,1.4,1.4,0,0,1,0-2.1l4.8-4.9a1.5,1.5,0,0,1,2.1,2.1l-4.8,4.9A1.5,1.5,0,0,1,29.4,37.1Z"/><path class="a" d="M49.5,47.2l-.7-.2a1.4,1.4,0,0,1-.6-2,21.6,21.6,0,0,0,2.2-9.4,21,21,0,0,0-42,0A21.6,21.6,0,0,0,10.6,45,1.5,1.5,0,0,1,8,46.4,24,24,0,1,1,53.4,35.6a25.2,25.2,0,0,1-2.5,10.8A1.6,1.6,0,0,1,49.5,47.2Z"/><path class="a" d="M49.5,47.2H9.3a1.5,1.5,0,0,1,0-3H49.5a1.5,1.5,0,0,1,0,3Z"/></svg>