<svg xmlns="http://www.w3.org/2000/svg" viewBox="0 0 58.8 58.8"><defs><style>.a{fill:#808080;}</style></defs><title>icon gray</title><path class="a" d="M1.5,18.7H5.3l7.8,13.9,2.5,5h.2c-.2-2.5-.5-5.3-.5-7.9v-11h3.5V42.3H15L7.2,28.4l-2.5-5H4.5c.2,2.5.5,5.2.5,7.8V42.3H1.5Z"/><path class="a" d="M23.8,30.4c0-7.6,4.2-12.2,10.3-12.2s10.3,4.6,10.3,12.2S40.2,42.7,34.1,42.7,23.8,38,23.8,30.4Zm16.8,0c0-5.6-2.6-8.9-6.5-8.9s-6.5,3.3-6.5,8.9,2.6,9.1,6.5,9.1S40.6,36,40.6,30.4Z"/><path class="a" d="M47.2,40.9c4.6-4.1,7-7.2,7-9.8a2.6,2.6,0,0,0-2.7-2.9A4.4,4.4,0,0,0,48.4,30L47,28.6a6.3,6.3,0,0,1,4.8-2.4A4.5,4.5,0,0,1,56.6,31c0,3-2.4,6.2-5.8,9.4l2.6-.2h4v2.1H47.2Z"/></svg>
