<svg xmlns="http://www.w3.org/2000/svg" viewBox="0 0 58.8 58.8"><defs><style>.a{fill:#ff2700;}</style></defs><title>icon red</title><path class="a" d="M40.6,46.2h-.5a1.4,1.4,0,0,1-1-1.6l1.5-12.3H35.7a1.4,1.4,0,0,1-1.3-.8,1.4,1.4,0,0,1,.1-1.5L46.1,13.3a1.6,1.6,0,0,1,1.8-.6,1.6,1.6,0,0,1,.9,1.6L47.4,24.5h5.2a1.3,1.3,0,0,1,1.3.8,1.4,1.4,0,0,1,0,1.5l-12,18.7A1.7,1.7,0,0,1,40.6,46.2Zm-2-17h3.7a1.6,1.6,0,0,1,1.1.5,1.7,1.7,0,0,1,.4,1.2l-.9,7.5,7-10.9H45.6a1.6,1.6,0,0,1-1.1-.5,1.3,1.3,0,0,1-.3-1.2l.8-5.7Z"/><path class="a" d="M25.1,39.4H6.2a1.5,1.5,0,0,1-1.5-1.5,1.5,1.5,0,0,1,1.5-1.5H21.8l-5.4-6a1.5,1.5,0,1,1,2.2-2l7.6,8.5a1.5,1.5,0,0,1,.3,1.6A1.6,1.6,0,0,1,25.1,39.4Z"/></svg>