<svg xmlns="http://www.w3.org/2000/svg" viewBox="0 0 58.8 58.8"><defs><style>.a{fill:#808080;}</style></defs><title>icon gray</title><path class="a" d="M3.8,39,6,36.4a9.3,9.3,0,0,0,6.3,2.8c2.9,0,4.5-1.3,4.5-3.3S15.2,33,13,32.1L9.7,30.7c-2.2-1-4.8-2.8-4.8-6.2s3.3-6.6,7.8-6.6a10.3,10.3,0,0,1,7.2,3l-2,2.4a7.6,7.6,0,0,0-5.2-2.1c-2.4,0-4,1.1-4,3s1.9,2.8,3.8,3.6l3.3,1.4c2.8,1.2,4.8,2.9,4.8,6.4s-3.1,6.9-8.3,6.9A11.9,11.9,0,0,1,3.8,39Z"/><path class="a" d="M23.8,30.1c0-7.6,4.2-12.2,10.3-12.2s10.3,4.6,10.3,12.2S40.2,42.5,34.1,42.5,23.8,37.7,23.8,30.1Zm16.8,0c0-5.5-2.6-8.9-6.5-8.9s-6.5,3.4-6.5,8.9,2.6,9.1,6.5,9.1S40.6,35.7,40.6,30.1Z"/><path class="a" d="M47.2,40.6c4.6-4.1,7-7.2,7-9.8a2.6,2.6,0,0,0-2.7-2.9,4.4,4.4,0,0,0-3.1,1.8L47,28.3A6.5,6.5,0,0,1,51.8,26a4.4,4.4,0,0,1,4.8,4.7c0,3-2.4,6.2-5.8,9.4l2.6-.2h4v2.2H47.2Z"/></svg>
