<svg xmlns="http://www.w3.org/2000/svg" viewBox="0 0 58.8 58.8"><defs><style>.a{fill:#ff2700;}</style></defs><title>icon red</title><path class="a" d="M55.7,32H47.2a1.5,1.5,0,0,1-1.5-1.5A1.5,1.5,0,0,1,47.2,29h8.5a1.4,1.4,0,0,1,1.5,1.5A1.5,1.5,0,0,1,55.7,32Z"/><path class="a" d="M34.7,32h-10a1.5,1.5,0,0,1-1.5-1.5A1.5,1.5,0,0,1,24.7,29h10a1.4,1.4,0,0,1,1.5,1.5A1.5,1.5,0,0,1,34.7,32Z"/><path class="a" d="M42,45.5,38.4,26.3l-2.3,4.8a1.4,1.4,0,0,1-2,.7,1.4,1.4,0,0,1-.7-2l6.3-13.1,3.5,19,2.7-5.9a1.5,1.5,0,0,1,2.7,1.3Z"/><path class="a" d="M22,42.1H3.1a1.7,1.7,0,0,1-1.4-.9A1.5,1.5,0,0,1,2,39.6l7.6-8.5a1.5,1.5,0,1,1,2.2,2l-5.3,6H22a1.4,1.4,0,0,1,1.5,1.5A1.5,1.5,0,0,1,22,42.1Z"/></svg>