<svg xmlns="http://www.w3.org/2000/svg" viewBox="0 0 58.8 58.8">
  <defs>
    <style>
      .cls-1, .cls-2 {
        fill: none;
        stroke: #3aa657;
        stroke-linecap: round;
        stroke-linejoin: round;
      }

      .cls-1 {
        stroke-width: 3px;
      }

      .cls-2 {
        stroke-width: 2px;
      }
    </style>
  </defs>
  <title>icon green-16</title>
  <g id="圖層_1" data-name="圖層 1">
    <path class="cls-1" d="M6.44,69V49.37A18.4,18.4,0,0,1,18.72,32l24.82-8.75A8,8,0,0,1,51,24c4.1,2.69-1.71,8.54-7.52,10a13.17,13.17,0,0,1-11.06-2.11"/>
    <line class="cls-2" x1="36.2" y1="37.95" x2="34.47" y2="42.45"/>
    <line class="cls-2" x1="44.22" y1="37.95" x2="44.76" y2="42.74"/>
    <line class="cls-2" x1="51.68" y1="35.82" x2="53.9" y2="40.09"/>
    <path class="cls-2" d="M43,21.85,40.83,19a2.45,2.45,0,0,0-2.68-.84l-2,.62a2.46,2.46,0,0,0-1.7,2.33v3.66Z"/>
    <path class="cls-2" d="M28.53,19.22a5.1,5.1,0,0,1,5.52-5.8"/>
    <path class="cls-2" d="M34.43,9.38A9.14,9.14,0,0,0,24.49,19.6"/>
  </g>
</svg>
