<svg xmlns="http://www.w3.org/2000/svg" viewBox="0 0 58.8 58.8"><defs><style>.a{fill:#808080;}</style></defs><title>icon gray</title><path class="a" d="M49.4,29.6H38.5a1.5,1.5,0,0,1,0-3H49.4a1.5,1.5,0,0,1,0,3Z"/><path class="a" d="M22.3,29.6H9.4a1.5,1.5,0,1,1,0-3H22.3a1.5,1.5,0,1,1,0,3Z"/><path class="a" d="M32.4,42.6h-.2A1.5,1.5,0,0,1,31,41.4L27.3,21.3l-3.6,7.5a1.6,1.6,0,0,1-2,.7,1.4,1.4,0,0,1-.7-2l5.5-11.6a1.6,1.6,0,0,1,1.6-.9,1.6,1.6,0,0,1,1.3,1.3L33,36.2l4.1-8.7a1.5,1.5,0,0,1,2-.8,1.5,1.5,0,0,1,.7,2l-6,13.1A1.6,1.6,0,0,1,32.4,42.6Z"/></svg>
