<svg xmlns="http://www.w3.org/2000/svg" viewBox="0 0 58.8 58.8">
  <defs>
    <style>.a{fill:#34a853;}</style>
  </defs>
  <title>icon green</title>
  <path class="a" d="M55.7,30.3H47.2a1.5,1.5,0,0,1,0-3h8.5a1.5,1.5,0,0,1,0,3Z" />
  <path class="a" d="M34.7,30.3h-10a1.5,1.5,0,0,1,0-3h10a1.5,1.5,0,0,1,0,3Z" />
  <path class="a" d="M42,43.8,38.4,24.6l-2.3,4.8a1.4,1.4,0,0,1-2,.7,1.4,1.4,0,0,1-.7-2L39.7,15l3.5,19,2.7-5.8a1.5,1.5,0,0,1,2-.8,1.5,1.5,0,0,1,.7,2Z" />
  <path class="a" d="M22,41.7H3.1a1.5,1.5,0,0,1-1.5-1.5,1.5,1.5,0,0,1,1.5-1.5H18.7l-5.4-5.9a1.5,1.5,0,1,1,2.2-2l7.6,8.4a1.6,1.6,0,0,1,.3,1.6A1.4,1.4,0,0,1,22,41.7Z" />
</svg>
