<svg xmlns="http://www.w3.org/2000/svg" viewBox="0 0 58.8 58.8"><defs><style>.a{fill:#808080;}</style></defs><title>icon gray</title><path class="a" d="M31.4,54H27.2A1.2,1.2,0,0,1,26,52.7V45.3H17.2a1.1,1.1,0,0,1-1.1-.6,1.5,1.5,0,0,1,0-1.3l4.7-7.7H18.7a1.1,1.1,0,0,1-1.1-.6,1.2,1.2,0,0,1,0-1.3l5.8-9.4H21.9a1.1,1.1,0,0,1-1.1-.6,1.1,1.1,0,0,1,0-1.3L28.2,9.6A1.7,1.7,0,0,1,29.3,9h0a1.4,1.4,0,0,1,1.1.6l7.5,12.9a1.5,1.5,0,0,1,0,1.3,1.4,1.4,0,0,1-1.1.6H35.3l5.8,9.4a1.5,1.5,0,0,1,0,1.3,1.3,1.3,0,0,1-1.1.6H37.8l4.7,7.7a1.2,1.2,0,0,1,0,1.3,1.1,1.1,0,0,1-1.1.6H32.7v7.4A1.3,1.3,0,0,1,31.4,54Zm-2.9-2.5h1.7V44.1a1.2,1.2,0,0,1,1.2-1.3h7.8l-4.7-7.7a1.5,1.5,0,0,1,0-1.3,1.1,1.1,0,0,1,1.1-.6h2.2L32,23.8a1.1,1.1,0,0,1,0-1.3,1.1,1.1,0,0,1,1.1-.6h1.5l-5.3-9.1L24,21.9h1.6a1.3,1.3,0,0,1,1.1.6,1.5,1.5,0,0,1,0,1.3l-5.8,9.4h2.2a1.4,1.4,0,0,1,1.1.6,1.2,1.2,0,0,1-.1,1.3l-4.7,7.7h7.8a1.3,1.3,0,0,1,1.3,1.3Z"/><path class="a" d="M44.8,37.9a2.1,2.1,0,0,1-1-.4,1.4,1.4,0,0,1-.1-2.1,8.7,8.7,0,0,0,0-10.6,1.5,1.5,0,1,1,2.2-2,11.2,11.2,0,0,1,2.6,7.3,10.8,10.8,0,0,1-2.6,7.2A1.4,1.4,0,0,1,44.8,37.9Z"/><path class="a" d="M49.5,45.4a1.7,1.7,0,0,1-1-.3,1.6,1.6,0,0,1-.2-2.1,19.8,19.8,0,0,0,4.5-12.9,19.8,19.8,0,0,0-4.5-12.9,1.6,1.6,0,0,1,.2-2.1,1.5,1.5,0,0,1,2.1.2,22.4,22.4,0,0,1,5.2,14.8,22.4,22.4,0,0,1-5.2,14.8A1.3,1.3,0,0,1,49.5,45.4Z"/><path class="a" d="M13.8,37.9a1.4,1.4,0,0,1-1.1-.6,10.8,10.8,0,0,1-2.6-7.2,11.2,11.2,0,0,1,2.6-7.3,1.4,1.4,0,0,1,2.1-.1,1.6,1.6,0,0,1,.2,2.1,8.3,8.3,0,0,0,0,10.6,1.6,1.6,0,0,1-.2,2.1A1.8,1.8,0,0,1,13.8,37.9Z"/><path class="a" d="M9.2,45.4A1.3,1.3,0,0,1,8,44.9,23,23,0,0,1,2.8,30.1,23,23,0,0,1,8,15.3a1.5,1.5,0,0,1,2.3,1.9A19.8,19.8,0,0,0,5.8,30.1,19.8,19.8,0,0,0,10.3,43a1.5,1.5,0,0,1-.2,2.1A1.4,1.4,0,0,1,9.2,45.4Z"/></svg>
