<svg xmlns="http://www.w3.org/2000/svg" viewBox="0 0 58.8 58.8"><defs><style>.a{fill:#ff2700;}</style></defs><title>icon red</title><path class="a" d="M12.6,29.3c0-7.6,4.2-12.2,10.3-12.2s10.3,4.6,10.3,12.2S29,41.7,22.9,41.7,12.6,37,12.6,29.3Zm16.8,0c0-5.5-2.6-8.9-6.5-8.9s-6.5,3.4-6.5,8.9,2.6,9.1,6.5,9.1S29.4,34.9,29.4,29.3Z"/><path class="a" d="M35.6,39.4l1.2-1.6a5.2,5.2,0,0,0,3.8,1.7c1.7,0,3-1,3-2.6S42.4,34,38.9,34V32.2C42,32.2,43,31,43,29.4a2.2,2.2,0,0,0-2.4-2.3,4.6,4.6,0,0,0-3.2,1.5l-1.2-1.5a6.6,6.6,0,0,1,4.5-1.9c2.8,0,4.8,1.4,4.8,4A3.9,3.9,0,0,1,42.8,33h0A3.9,3.9,0,0,1,46,37c0,2.9-2.3,4.5-5.2,4.5A6.6,6.6,0,0,1,35.6,39.4Z"/></svg>