<svg xmlns="http://www.w3.org/2000/svg" viewBox="0 0 58.8 58.8"><defs><style>.a{fill:#808080;}</style></defs><title>icon gray</title><path class="a" d="M50.1,30.9a1.4,1.4,0,0,1-1.5-1.5V24.2a.8.8,0,0,0-.9-.9H46.6a1.4,1.4,0,0,1-1.5-1.5,4.1,4.1,0,0,0-1-3,2,2,0,0,0-1.5-.5H13c-2.6,0-2.7,1.6-2.8,1.8v9.3a1.4,1.4,0,0,1-1.5,1.5,1.5,1.5,0,0,1-1.5-1.5V20.1c.1-1.4,1.2-4.8,5.8-4.8H42.4a5.1,5.1,0,0,1,3.7,1.3A6.3,6.3,0,0,1,48,20.4a3.7,3.7,0,0,1,3.6,3.8v5.2A1.5,1.5,0,0,1,50.1,30.9Z"/><path class="a" d="M42.7,43.6H13c-4.6,0-5.7-3.5-5.8-4.8V29.4a1.5,1.5,0,0,1,1.5-1.5,1.5,1.5,0,0,1,1.5,1.5v9.4c.1.3.4,1.8,2.8,1.8H42.6a2.3,2.3,0,0,0,1.5-.6,4,4,0,0,0,1-3,1.2,1.2,0,0,1,.4-1,1.6,1.6,0,0,1,1.1-.5h1.1c.9,0,.9-.6.9-.9V29.4a1.5,1.5,0,0,1,1.5-1.5,1.5,1.5,0,0,1,1.5,1.5v5.2A3.8,3.8,0,0,1,48,38.5a6.6,6.6,0,0,1-1.9,3.8A5.4,5.4,0,0,1,42.7,43.6Z"/><polygon class="a" points="30 21 23.6 30.1 27.2 30.1 26.2 37.8 32.9 27.6 29 27.6 30 21"/><path class="a" d="M26.2,38.2h-.1a.5.5,0,0,1-.2-.4l.9-7.3H23.6a.5.5,0,0,1-.4-.2.6.6,0,0,1,.1-.4l6.3-9.1a.4.4,0,0,1,.5-.1c.2,0,.2.2.2.4l-.8,6.1h3.4l.3.2c.1.1.1.2,0,.4L26.6,38C26.5,38.2,26.4,38.2,26.2,38.2Zm-1.9-8.4h3.2c0,.1.1.2,0,.3l-.7,6.1,5.4-8.4H28.7c0-.1-.1-.2,0-.3l.7-5Z"/></svg>
