<svg xmlns="http://www.w3.org/2000/svg" viewBox="0 0 58.8 58.8"><defs><style>.a{fill:#34a853;}</style></defs><title>icon green</title><path class="a" d="M40.6,44.4h-.5a1.5,1.5,0,0,1-1-1.6l1.5-12.3H35.7a1.4,1.4,0,0,1-1.3-.8,1.5,1.5,0,0,1,.1-1.6L46.1,11.5a1.6,1.6,0,0,1,1.8-.6,1.5,1.5,0,0,1,.9,1.6L47.4,22.7h5.2a1.3,1.3,0,0,1,1.3.8,1.4,1.4,0,0,1,0,1.5l-12,18.7A1.7,1.7,0,0,1,40.6,44.4Zm-2-17h3.7a1.6,1.6,0,0,1,1.1.5,1.7,1.7,0,0,1,.4,1.2l-.9,7.5,7-10.9H45.6a1.6,1.6,0,0,1-1.1-.5,1.4,1.4,0,0,1-.3-1.2l.8-5.7Z"/><path class="a" d="M25.1,37.5H6.2a1.6,1.6,0,0,1-1.4-.8A1.7,1.7,0,0,1,5.1,35l7.6-8.4a1.5,1.5,0,1,1,2.2,2L9.6,34.5H25.1A1.5,1.5,0,0,1,26.6,36,1.4,1.4,0,0,1,25.1,37.5Z"/></svg>